<svg id="Group_8" data-name="Group 8" xmlns="http://www.w3.org/2000/svg" width="45.312" height="37.561" viewBox="0 0 45.312 37.561">
  <path id="Path_1038" data-name="Path 1038" d="M42.568,8.347a1.86,1.86,0,0,1-1.863-1.855V3.71H33.253V6.492a1.863,1.863,0,0,1-3.726,0V3.71A3.722,3.722,0,0,1,33.253,0h7.453a3.722,3.722,0,0,1,3.726,3.71V6.492A1.86,1.86,0,0,1,42.568,8.347Z" transform="translate(-14.323)" fill="#0286ff"/>
  <path id="Path_1039" data-name="Path 1039" d="M24,42.335a3.928,3.928,0,0,1-1.34.224A4.179,4.179,0,0,1,21.2,42.3L0,35.316V49.559a5.16,5.16,0,0,0,5.192,5.134H40.12a5.16,5.16,0,0,0,5.192-5.134V35.316Z" transform="translate(0 -17.131)" fill="#0286ff"/>
  <path id="Path_1040" data-name="Path 1040" d="M45.312,16.192v4.324l-22.2,7.4a1.4,1.4,0,0,1-.906,0L0,20.516V16.192A5.189,5.189,0,0,1,5.192,11H40.12A5.189,5.189,0,0,1,45.312,16.192Z" transform="translate(0 -5.336)" fill="#0286ff"/>
</svg>
