<svg xmlns="http://www.w3.org/2000/svg" width="21.284" height="17.027" viewBox="0 0 21.284 17.027">
  <path id="Icon_awesome-twitter" data-name="Icon awesome-twitter" d="M19.1,7.624c.014.186.014.372.014.559A12.228,12.228,0,0,1,6.7,20.408,12.464,12.464,0,0,1,0,18.479a9.159,9.159,0,0,0,1.053.053A8.821,8.821,0,0,0,6.469,16.7a4.362,4.362,0,0,1-4.079-2.98,5.583,5.583,0,0,0,.824.066,4.68,4.68,0,0,0,1.148-.146A4.314,4.314,0,0,1,.864,9.42V9.367a4.444,4.444,0,0,0,1.972.545A4.277,4.277,0,0,1,.891,6.334a4.216,4.216,0,0,1,.594-2.168,12.462,12.462,0,0,0,8.994,4.5,4.781,4.781,0,0,1-.108-.984,4.328,4.328,0,0,1,4.362-4.3,4.383,4.383,0,0,1,3.187,1.357A8.668,8.668,0,0,0,20.69,3.7a4.3,4.3,0,0,1-1.918,2.368A8.85,8.85,0,0,0,21.284,5.4,9.3,9.3,0,0,1,19.1,7.624Z" transform="translate(0 -3.381)" fill="#1760a6"/>
</svg>
