<svg xmlns="http://www.w3.org/2000/svg" width="17.027" height="17.027" viewBox="0 0 17.027 17.027">
  <path id="Icon_awesome-facebook-square" data-name="Icon awesome-facebook-square" d="M15.2,2.25H1.824A1.824,1.824,0,0,0,0,4.074V17.453a1.824,1.824,0,0,0,1.824,1.824H7.041V13.488H4.646V10.763H7.041V8.687A3.326,3.326,0,0,1,10.6,5.02a14.506,14.506,0,0,1,2.11.184V7.522H11.522A1.362,1.362,0,0,0,9.986,8.994v1.769H12.6l-.418,2.725h-2.2v5.789H15.2a1.824,1.824,0,0,0,1.824-1.824V4.074A1.824,1.824,0,0,0,15.2,2.25Z" transform="translate(0 -2.25)" fill="#1760a6"/>
</svg>
