<svg xmlns="http://www.w3.org/2000/svg" width="17.027" height="17.027" viewBox="0 0 17.027 17.027">
  <path id="Icon_awesome-linkedin" data-name="Icon awesome-linkedin" d="M15.811,2.25H1.212A1.221,1.221,0,0,0,0,3.478V18.049a1.221,1.221,0,0,0,1.212,1.228h14.6a1.225,1.225,0,0,0,1.216-1.228V3.478A1.225,1.225,0,0,0,15.811,2.25ZM5.146,16.845H2.622V8.719H5.15v8.126ZM3.884,7.609A1.463,1.463,0,1,1,5.348,6.146,1.464,1.464,0,0,1,3.884,7.609Zm10.722,9.236H12.082V12.892c0-.943-.019-2.155-1.311-2.155-1.315,0-1.516,1.026-1.516,2.087v4.021H6.731V8.719H9.152v1.11h.034a2.658,2.658,0,0,1,2.391-1.311c2.554,0,3.029,1.684,3.029,3.873Z" transform="translate(0 -2.25)" fill="#1760a6"/>
</svg>
