<svg xmlns="http://www.w3.org/2000/svg" width="24.831" height="17.027" viewBox="0 0 24.831 17.027">
  <path id="Icon_awesome-youtube" data-name="Icon awesome-youtube" d="M25.362,7.164a3.082,3.082,0,0,0-2.2-2.155c-1.936-.509-9.7-.509-9.7-.509s-7.765,0-9.7.509a3.082,3.082,0,0,0-2.2,2.155,31.148,31.148,0,0,0-.519,5.867A31.148,31.148,0,0,0,1.569,18.9a3.037,3.037,0,0,0,2.2,2.12c1.936.509,9.7.509,9.7.509s7.765,0,9.7-.509a3.037,3.037,0,0,0,2.2-2.12,31.148,31.148,0,0,0,.519-5.867,31.148,31.148,0,0,0-.519-5.867ZM10.926,16.631V9.43l6.49,3.6-6.49,3.6Z" transform="translate(-1.05 -4.5)" fill="#1760a6"/>
</svg>
