<svg xmlns="http://www.w3.org/2000/svg" width="17.736" height="17.736" viewBox="0 0 17.736 17.736">
  <path id="Icon_awesome-instagram" data-name="Icon awesome-instagram" d="M8.865,6.559a4.547,4.547,0,1,0,4.546,4.547A4.54,4.54,0,0,0,8.865,6.559Zm0,7.5a2.956,2.956,0,1,1,2.956-2.956A2.961,2.961,0,0,1,8.865,14.062Zm5.793-7.69A1.06,1.06,0,1,1,13.6,5.312,1.058,1.058,0,0,1,14.658,6.373Zm3.011,1.076a5.25,5.25,0,0,0-1.432-3.716A5.282,5.282,0,0,0,12.521,2.3c-1.464-.083-5.852-.083-7.316,0A5.274,5.274,0,0,0,1.489,3.729,5.267,5.267,0,0,0,.057,7.445c-.083,1.464-.083,5.853,0,7.318a5.25,5.25,0,0,0,1.432,3.716A5.288,5.288,0,0,0,5.2,19.912c1.464.083,5.852.083,7.316,0a5.247,5.247,0,0,0,3.715-1.433,5.284,5.284,0,0,0,1.432-3.716c.083-1.464.083-5.849,0-7.314Zm-1.891,8.885a2.993,2.993,0,0,1-1.686,1.686c-1.167.463-3.937.356-5.227.356s-4.064.1-5.227-.356a2.993,2.993,0,0,1-1.686-1.686C1.489,15.167,1.6,12.4,1.6,11.106s-.1-4.065.356-5.228A2.993,2.993,0,0,1,3.638,4.192c1.167-.463,3.937-.356,5.227-.356s4.064-.1,5.227.356a2.993,2.993,0,0,1,1.686,1.686c.463,1.168.356,3.938.356,5.228S16.24,15.17,15.778,16.334Z" transform="translate(0.005 -2.238)" fill="#1760a6"/>
</svg>
