<svg id="Component_56_1" data-name="Component 56 – 1" xmlns="http://www.w3.org/2000/svg" xmlns:xlink="http://www.w3.org/1999/xlink" width="112.365" height="32.638" viewBox="0 0 112.365 32.638">
  <defs>
    <linearGradient id="linear-gradient" x1="0.703" y1="1.311" x2="0.195" y2="-0.721" gradientUnits="objectBoundingBox">
      <stop offset="0" stop-color="#fff" stop-opacity="0"/>
      <stop offset="0.297" stop-color="#fff" stop-opacity="0.102"/>
      <stop offset="0.433" stop-color="#fff" stop-opacity="0.251"/>
      <stop offset="0.728" stop-color="#fff" stop-opacity="0.627"/>
      <stop offset="1" stop-color="#fff"/>
    </linearGradient>
  </defs>
  <g id="Group_2636" data-name="Group 2636" transform="translate(42.14 5.807)">
    <path id="Path_1345" data-name="Path 1345" d="M8.453-70.579V-80.967h2.523v4.2h3.815v-4.2H17.3v10.387H14.792v-4.127H10.976v4.127Zm14.389,0v-4.485l-3.94-5.9H22L24.961-76H23.793l2.694-4.968h2.507l-3.987,6.525.358-1.339v5.2Zm10.885.218a11.916,11.916,0,0,1-1.433-.078,7.7,7.7,0,0,1-1.184-.234,6.543,6.543,0,0,1-1.059-.4v-2.4a5.086,5.086,0,0,0,1.62.872,5.507,5.507,0,0,0,1.713.3,1.874,1.874,0,0,0,1.1-.273.955.955,0,0,0,.382-.833.8.8,0,0,0-.35-.677,3.424,3.424,0,0,0-.927-.452q-.576-.195-1.293-.444a5.878,5.878,0,0,1-.888-.358,3.072,3.072,0,0,1-.779-.553,2.453,2.453,0,0,1-.545-.818,3.063,3.063,0,0,1-.2-1.184,3.321,3.321,0,0,1,.234-1.23,2.948,2.948,0,0,1,.724-1.059,3.491,3.491,0,0,1,1.254-.74,5.325,5.325,0,0,1,1.791-.273,7.271,7.271,0,0,1,1.129.078,6.086,6.086,0,0,1,.942.226,6.772,6.772,0,0,1,.919.382v2.429a5.885,5.885,0,0,0-.8-.553,5.549,5.549,0,0,0-.927-.428,3.3,3.3,0,0,0-1.012-.187,2.817,2.817,0,0,0-.857.093,1.248,1.248,0,0,0-.607.35.883.883,0,0,0-.218.615.9.9,0,0,0,.265.685,2.038,2.038,0,0,0,.732.413q.467.164,1.043.35a11.05,11.05,0,0,1,1.176.413,3.615,3.615,0,0,1,.942.568,2.285,2.285,0,0,1,.623.841,2.981,2.981,0,0,1,.218,1.2,3.4,3.4,0,0,1-.436,1.705,3.1,3.1,0,0,1-1.261,1.215A4.229,4.229,0,0,1,33.728-70.361Zm4.765-.218,3.924-10.387h2.756l3.675,10.387H46.264l-3.317-9.8,1.23-.109-3.3,9.9ZM40.7-72.822l.514-1.853h4.719l.234,1.853Zm9.624,2.243V-80.967h4.407a6.04,6.04,0,0,1,1.97.288,2.64,2.64,0,0,1,1.3.919,2.747,2.747,0,0,1,.467,1.674,1.853,1.853,0,0,1-.343,1.152,2.683,2.683,0,0,1-.825.724,6.33,6.33,0,0,1-.9.428l-.28-.545a3.66,3.66,0,0,1,1.5.35,2.481,2.481,0,0,1,1.012.888A2.463,2.463,0,0,1,59-73.725a2.885,2.885,0,0,1-.522,1.783,3.083,3.083,0,0,1-1.394,1.028,5.348,5.348,0,0,1-1.931.335Zm2.523-1.947H54.97a2.115,2.115,0,0,0,.716-.117,1.075,1.075,0,0,0,.529-.4,1.316,1.316,0,0,0,.2-.771,1.25,1.25,0,0,0-.125-.592.952.952,0,0,0-.335-.366,1.55,1.55,0,0,0-.475-.195,2.441,2.441,0,0,0-.561-.062H52.852Zm0-4.36h2.024a1.24,1.24,0,0,0,.5-.1.874.874,0,0,0,.382-.319,1.009,1.009,0,0,0,.148-.576,1.006,1.006,0,0,0-.343-.88A1.423,1.423,0,0,0,54.72-79H52.852Zm7.195,6.307,3.924-10.387h2.756L70.4-70.579H67.817l-3.317-9.8,1.23-.109-3.3,9.9Zm2.211-2.243.514-1.853H67.49l.234,1.853Zm10.87,2.243V-79.02H70.215v-1.947h8.394v1.947H75.65v8.441Z" transform="translate(-8.385 81.2)" fill="#fff"/>
    <path id="Path_1346" data-name="Path 1346" d="M4.93-34.735V-39.8h.592L7.4-36.92l-.372.083L9-39.8H9.6v5.06H9.049v-4.514h.243L7.206-36.321,5.279-39.188l.2-.281v4.734Zm7.26.114a2.46,2.46,0,0,1-.5-.053,1.516,1.516,0,0,1-.47-.182.993.993,0,0,1-.349-.353,1.093,1.093,0,0,1-.133-.565,1.407,1.407,0,0,1,.178-.755,1.006,1.006,0,0,1,.493-.41,1.95,1.95,0,0,1,.724-.125,3.323,3.323,0,0,1,.539.038,1.93,1.93,0,0,1,.406.11,2.019,2.019,0,0,1,.322.163l.106.5a1.606,1.606,0,0,0-.5-.224,2.616,2.616,0,0,0-.724-.095,1.265,1.265,0,0,0-.736.182.609.609,0,0,0-.258.531.63.63,0,0,0,.156.448.843.843,0,0,0,.394.235,1.772,1.772,0,0,0,.489.068,2.918,2.918,0,0,0,.747-.072.315.315,0,0,0,.254-.33v-1.737a.774.774,0,0,0-.258-.645,1.159,1.159,0,0,0-.736-.2,2.564,2.564,0,0,0-.641.087,1.567,1.567,0,0,0-.58.277v-.546a1.835,1.835,0,0,1,.63-.231,3.867,3.867,0,0,1,.766-.08,2.045,2.045,0,0,1,.463.049,1.408,1.408,0,0,1,.379.144.975.975,0,0,1,.284.243,1.1,1.1,0,0,1,.182.341,1.375,1.375,0,0,1,.064.436v1.836a.732.732,0,0,1-.239.6,1.269,1.269,0,0,1-.622.258A5.267,5.267,0,0,1,12.19-34.621Zm2.936-3.6a3.827,3.827,0,0,1,.376-.163A3.073,3.073,0,0,1,15.9-38.5a3.641,3.641,0,0,1,.41-.068,3.879,3.879,0,0,1,.421-.023,1.987,1.987,0,0,1,.88.163,1,1,0,0,1,.474.474,1.737,1.737,0,0,1,.148.751v2.466h-.546V-37.2a1.314,1.314,0,0,0-.034-.288.819.819,0,0,0-.133-.292.687.687,0,0,0-.3-.228,1.417,1.417,0,0,0-.546-.087,3.239,3.239,0,0,0-.486.038,3.837,3.837,0,0,0-.508.114v3.209h-.546Zm5.659,3.6a2.46,2.46,0,0,1-.5-.053,1.517,1.517,0,0,1-.47-.182.993.993,0,0,1-.349-.353,1.094,1.094,0,0,1-.133-.565,1.407,1.407,0,0,1,.178-.755,1.006,1.006,0,0,1,.493-.41,1.95,1.95,0,0,1,.724-.125,3.323,3.323,0,0,1,.539.038,1.93,1.93,0,0,1,.406.11,2.019,2.019,0,0,1,.322.163l.106.5a1.606,1.606,0,0,0-.5-.224,2.616,2.616,0,0,0-.724-.095,1.265,1.265,0,0,0-.736.182.609.609,0,0,0-.258.531.63.63,0,0,0,.156.448.843.843,0,0,0,.394.235,1.772,1.772,0,0,0,.489.068,2.918,2.918,0,0,0,.747-.072.315.315,0,0,0,.254-.33v-1.737a.774.774,0,0,0-.258-.645,1.159,1.159,0,0,0-.736-.2,2.564,2.564,0,0,0-.641.087,1.566,1.566,0,0,0-.58.277v-.546a1.835,1.835,0,0,1,.63-.231,3.867,3.867,0,0,1,.766-.08,2.046,2.046,0,0,1,.463.049,1.408,1.408,0,0,1,.379.144.975.975,0,0,1,.284.243,1.1,1.1,0,0,1,.182.341,1.375,1.375,0,0,1,.064.436v1.836a.732.732,0,0,1-.239.6,1.269,1.269,0,0,1-.622.258A5.267,5.267,0,0,1,20.785-34.621Zm4.476,0a1.845,1.845,0,0,1-.967-.231,1.421,1.421,0,0,1-.573-.66,2.488,2.488,0,0,1-.19-1.013,2.71,2.71,0,0,1,.174-1.058,1.539,1.539,0,0,1,.451-.622,1.579,1.579,0,0,1,.607-.3,2.729,2.729,0,0,1,.641-.08,2.394,2.394,0,0,1,.679.095,1.243,1.243,0,0,1,.531.3.731.731,0,0,1,.209.546v3.065a1.654,1.654,0,0,1-.068.463,1.129,1.129,0,0,1-.247.436,1.236,1.236,0,0,1-.5.322,2.393,2.393,0,0,1-.831.121,2.765,2.765,0,0,1-.6-.061q-.273-.061-.478-.114v-.516l.277.072q.156.042.341.072a2.475,2.475,0,0,0,.4.03,1.763,1.763,0,0,0,.762-.125.634.634,0,0,0,.322-.311.986.986,0,0,0,.076-.376v-.554l.19.19a2.181,2.181,0,0,1-.364.144,4.464,4.464,0,0,1-.448.114A2.051,2.051,0,0,1,25.261-34.621Zm0-.5a2.2,2.2,0,0,0,.512-.064,1.863,1.863,0,0,0,.5-.2v-2.177a.42.42,0,0,0-.118-.322.645.645,0,0,0-.315-.152,2.052,2.052,0,0,0-.425-.042,1.353,1.353,0,0,0-.834.216,1.058,1.058,0,0,0-.379.573,2.864,2.864,0,0,0-.1.766,1.767,1.767,0,0,0,.266,1.013A1,1,0,0,0,25.261-35.122Zm2.845.387v-3.786h.546v3.786Zm-.03-4.461v-.6h.607v.6Zm1.859.979a3.827,3.827,0,0,1,.376-.163A3.073,3.073,0,0,1,30.7-38.5a3.641,3.641,0,0,1,.41-.068,3.879,3.879,0,0,1,.421-.023,1.987,1.987,0,0,1,.88.163,1,1,0,0,1,.474.474,1.737,1.737,0,0,1,.148.751v2.466h-.546V-37.2a1.314,1.314,0,0,0-.034-.288.819.819,0,0,0-.133-.292.687.687,0,0,0-.3-.228,1.417,1.417,0,0,0-.546-.087,3.239,3.239,0,0,0-.486.038,3.837,3.837,0,0,0-.508.114v3.209h-.546Zm5.894,3.6a1.845,1.845,0,0,1-.967-.231,1.421,1.421,0,0,1-.573-.66,2.488,2.488,0,0,1-.19-1.013,2.71,2.71,0,0,1,.174-1.058,1.539,1.539,0,0,1,.451-.622,1.579,1.579,0,0,1,.607-.3,2.729,2.729,0,0,1,.641-.08,2.394,2.394,0,0,1,.679.095,1.243,1.243,0,0,1,.531.3.731.731,0,0,1,.209.546v3.065a1.654,1.654,0,0,1-.068.463,1.129,1.129,0,0,1-.247.436,1.236,1.236,0,0,1-.5.322,2.393,2.393,0,0,1-.831.121,2.765,2.765,0,0,1-.6-.061q-.273-.061-.478-.114v-.516l.277.072q.156.042.341.072a2.475,2.475,0,0,0,.4.03,1.763,1.763,0,0,0,.762-.125.634.634,0,0,0,.322-.311.986.986,0,0,0,.076-.376v-.554l.19.19a2.181,2.181,0,0,1-.364.144,4.464,4.464,0,0,1-.448.114A2.051,2.051,0,0,1,35.829-34.621Zm0-.5a2.2,2.2,0,0,0,.512-.064,1.863,1.863,0,0,0,.5-.2v-2.177a.42.42,0,0,0-.118-.322.645.645,0,0,0-.315-.152,2.052,2.052,0,0,0-.425-.042,1.353,1.353,0,0,0-.834.216,1.058,1.058,0,0,0-.379.573,2.864,2.864,0,0,0-.1.766,1.767,1.767,0,0,0,.266,1.013A1,1,0,0,0,35.829-35.122Zm5.462,1.851a.846.846,0,0,1-.2-.023,1.429,1.429,0,0,1-.152-.046v-.5a1.07,1.07,0,0,0,.137.046.721.721,0,0,0,.19.023.6.6,0,0,0,.417-.144,1.156,1.156,0,0,0,.269-.387,4.545,4.545,0,0,0,.2-.539v.22l-1.608-3.9h.622l1.259,3.232h-.114l1.252-3.232h.546l-1.623,4.157a2.283,2.283,0,0,1-.383.683,1.194,1.194,0,0,1-.417.322A1.016,1.016,0,0,1,41.291-33.271Zm5.014-1.35a1.6,1.6,0,0,1-1.316-.527,2.266,2.266,0,0,1-.429-1.468,2.126,2.126,0,0,1,.451-1.479,1.646,1.646,0,0,1,1.278-.493,1.836,1.836,0,0,1,1,.247,1.447,1.447,0,0,1,.569.69,2.715,2.715,0,0,1,.182,1.036,2.19,2.19,0,0,1-.451,1.464A1.6,1.6,0,0,1,46.305-34.621Zm-.008-.5a1.147,1.147,0,0,0,.721-.2,1.093,1.093,0,0,0,.368-.539,2.429,2.429,0,0,0,.11-.755,2.389,2.389,0,0,0-.114-.778,1,1,0,0,0-.376-.512,1.223,1.223,0,0,0-.709-.182,1.149,1.149,0,0,0-.713.2,1.072,1.072,0,0,0-.368.527,2.357,2.357,0,0,0-.11.747,1.973,1.973,0,0,0,.266,1.081A1.014,1.014,0,0,0,46.3-35.122Zm4.392.5a1.934,1.934,0,0,1-.857-.174,1.215,1.215,0,0,1-.542-.508,1.663,1.663,0,0,1-.186-.819v-2.4h.546v2.276a1.2,1.2,0,0,0,.254.846,1.033,1.033,0,0,0,.785.269,1.033,1.033,0,0,0,.785-.269,1.2,1.2,0,0,0,.254-.846v-2.276h.546v2.4a1.456,1.456,0,0,1-.413,1.111A1.641,1.641,0,0,1,50.69-34.621Zm2.837-.114v-3.482q.091-.038.353-.129a5.042,5.042,0,0,1,.63-.167,3.767,3.767,0,0,1,.762-.076.5.5,0,0,1,.121.015l.121.03v.486a3.34,3.34,0,0,0-.383-.023,3.334,3.334,0,0,0-.36.019q-.174.019-.349.049l-.349.061v3.217Zm6.206.114a2.413,2.413,0,0,1-.687-.083,3.429,3.429,0,0,1-.573-.235v-.577q.235.129.417.22a1.6,1.6,0,0,0,.372.133,2.023,2.023,0,0,0,.432.042,1.057,1.057,0,0,0,.618-.167.507.507,0,0,0,.239-.432.433.433,0,0,0-.118-.326.951.951,0,0,0-.3-.19l-.379-.159q-.22-.061-.444-.133a1.786,1.786,0,0,1-.41-.19.929.929,0,0,1-.3-.3.912.912,0,0,1-.114-.482A.975.975,0,0,1,58.606-38a1.036,1.036,0,0,1,.307-.338,1.3,1.3,0,0,1,.425-.193,1.877,1.877,0,0,1,.47-.061,1.667,1.667,0,0,1,.584.091q.243.091.5.2v.546q-.288-.152-.516-.247a1.4,1.4,0,0,0-.539-.095,1.214,1.214,0,0,0-.558.125.406.406,0,0,0-.247.383.456.456,0,0,0,.125.338.863.863,0,0,0,.33.2q.2.072.44.14.19.061.394.133a1.664,1.664,0,0,1,.379.19.923.923,0,0,1,.284.307.958.958,0,0,1,.11.486,1.045,1.045,0,0,1-.2.664,1.191,1.191,0,0,1-.52.383A1.768,1.768,0,0,1,59.733-34.621Zm3.732,0a2.46,2.46,0,0,1-.5-.053,1.517,1.517,0,0,1-.47-.182.993.993,0,0,1-.349-.353,1.093,1.093,0,0,1-.133-.565,1.407,1.407,0,0,1,.178-.755,1.006,1.006,0,0,1,.493-.41,1.95,1.95,0,0,1,.724-.125,3.323,3.323,0,0,1,.539.038,1.93,1.93,0,0,1,.406.11,2.018,2.018,0,0,1,.322.163l.106.5a1.605,1.605,0,0,0-.5-.224,2.616,2.616,0,0,0-.724-.095,1.265,1.265,0,0,0-.736.182.609.609,0,0,0-.258.531.63.63,0,0,0,.156.448.843.843,0,0,0,.394.235,1.772,1.772,0,0,0,.489.068,2.918,2.918,0,0,0,.747-.072.315.315,0,0,0,.254-.33v-1.737a.774.774,0,0,0-.258-.645,1.159,1.159,0,0,0-.736-.2,2.564,2.564,0,0,0-.641.087,1.567,1.567,0,0,0-.58.277v-.546a1.835,1.835,0,0,1,.63-.231,3.867,3.867,0,0,1,.766-.08,2.046,2.046,0,0,1,.463.049,1.408,1.408,0,0,1,.379.144.975.975,0,0,1,.284.243,1.1,1.1,0,0,1,.182.341,1.375,1.375,0,0,1,.064.436v1.836a.732.732,0,0,1-.239.6,1.269,1.269,0,0,1-.622.258A5.267,5.267,0,0,1,63.465-34.621Zm3.482-.114H66.4v-5.227h.546Zm2.814.114a1.86,1.86,0,0,1-.933-.224,1.471,1.471,0,0,1-.607-.671,2.6,2.6,0,0,1-.212-1.115,2.123,2.123,0,0,1,.444-1.468,1.561,1.561,0,0,1,1.218-.489,1.6,1.6,0,0,1,.975.273,1.5,1.5,0,0,1,.527.736,3.081,3.081,0,0,1,.152,1.047H68.282l.038-.5h2.648l-.212.076a1.287,1.287,0,0,0-.284-.85,1.044,1.044,0,0,0-.8-.281,1.264,1.264,0,0,0-.618.137.835.835,0,0,0-.368.474,2.9,2.9,0,0,0-.121.944,1.528,1.528,0,0,0,.322,1.051,1.153,1.153,0,0,0,.907.36,2.96,2.96,0,0,0,.516-.042,2.344,2.344,0,0,0,.432-.118,2.244,2.244,0,0,0,.349-.167v.561a2.679,2.679,0,0,1-.6.2A3.58,3.58,0,0,1,69.762-34.621Zm3.694,0a2.413,2.413,0,0,1-.687-.083,3.43,3.43,0,0,1-.573-.235v-.577q.235.129.417.22a1.6,1.6,0,0,0,.372.133,2.023,2.023,0,0,0,.432.042,1.057,1.057,0,0,0,.618-.167.507.507,0,0,0,.239-.432.433.433,0,0,0-.118-.326.951.951,0,0,0-.3-.19l-.379-.159q-.22-.061-.444-.133a1.786,1.786,0,0,1-.41-.19.929.929,0,0,1-.3-.3.912.912,0,0,1-.114-.482A.975.975,0,0,1,72.33-38a1.036,1.036,0,0,1,.307-.338,1.3,1.3,0,0,1,.425-.193,1.877,1.877,0,0,1,.47-.061,1.667,1.667,0,0,1,.584.091q.243.091.5.2v.546q-.288-.152-.516-.247a1.4,1.4,0,0,0-.539-.095,1.214,1.214,0,0,0-.558.125.406.406,0,0,0-.247.383.456.456,0,0,0,.125.338.863.863,0,0,0,.33.2q.2.072.44.14.19.061.394.133a1.663,1.663,0,0,1,.379.19.923.923,0,0,1,.285.307.958.958,0,0,1,.11.486,1.045,1.045,0,0,1-.2.664,1.192,1.192,0,0,1-.52.383A1.768,1.768,0,0,1,73.456-34.621Z" transform="translate(-4.93 54.257)" fill="#fff"/>
  </g>
  <g id="Group_2637" data-name="Group 2637">
    <path id="Path_1340" data-name="Path 1340" d="M.4,0H7.785a.4.4,0,0,1,.4.4V15.633a.4.4,0,0,1-.4.4H.4a.4.4,0,0,1-.4-.4V.4A.4.4,0,0,1,.4,0Z" transform="matrix(0.994, -0.111, 0.111, 0.994, 0, 0.91)" fill="#fff"/>
    <path id="Path_1341" data-name="Path 1341" d="M.4,0H7.785a.4.4,0,0,1,.4.4V8.669a.4.4,0,0,1-.4.4H.4a.4.4,0,0,1-.4-.4V.4A.4.4,0,0,1,.4,0Z" transform="matrix(0.994, -0.111, 0.111, 0.994, 10.745, 6.715)" fill="#fff"/>
    <path id="Path_1343" data-name="Path 1343" d="M.4,0H7.785a.4.4,0,0,1,.4.4V11.422a.4.4,0,0,1-.4.4H.4a.4.4,0,0,1-.4-.4V.4A.4.4,0,0,1,.4,0Z" transform="matrix(0.994, -0.111, 0.111, 0.994, 20.523, 2.782)" fill="#fff"/>
    <path id="Path_1344" data-name="Path 1344" d="M.4,0H7.785a.4.4,0,0,1,.4.4V15.633a.4.4,0,0,1-.4.4H.4a.4.4,0,0,1-.4-.4V.4A.4.4,0,0,1,.4,0Z" transform="matrix(0.994, -0.111, 0.111, 0.994, 22.081, 16.704)" fill="url(#linear-gradient)"/>
    <path id="Path_1342" data-name="Path 1342" d="M.4,0H7.769a.4.4,0,0,1,.4.4V8.669a.4.4,0,0,1-.4.4H.4a.4.4,0,0,1-.4-.4V.4A.4.4,0,0,1,.4,0Z" transform="matrix(0.994, -0.111, 0.111, 0.994, 12.03, 17.882)" fill="url(#linear-gradient)"/>
    <path id="Path_1339" data-name="Path 1339" d="M.4,0H7.785a.4.4,0,0,1,.4.4V11.422a.4.4,0,0,1-.4.4H.4a.4.4,0,0,1-.4-.4V.4A.4.4,0,0,1,.4,0Z" transform="matrix(0.994, -0.111, 0.111, 0.994, 2.026, 19.017)" fill="url(#linear-gradient)"/>
  </g>
</svg>
