<svg id="Component_55_1" data-name="Component 55 – 1" xmlns="http://www.w3.org/2000/svg" xmlns:xlink="http://www.w3.org/1999/xlink" width="140.321" height="43.17" viewBox="0 0 140.321 43.17">
  <defs>
    <linearGradient id="linear-gradient" x1="0.613" y1="0.998" x2="0.387" y2="0.002" gradientUnits="objectBoundingBox">
      <stop offset="0" stop-color="#005d96"/>
      <stop offset="0.297" stop-color="#005d96"/>
      <stop offset="0.316" stop-color="#015e98"/>
      <stop offset="0.573" stop-color="#1773b0"/>
      <stop offset="0.808" stop-color="#257fbf"/>
      <stop offset="1" stop-color="#2a84c5"/>
    </linearGradient>
    <linearGradient id="linear-gradient-2" x1="0.564" y1="0.998" x2="0.436" y2="0.002" xlink:href="#linear-gradient"/>
    <linearGradient id="linear-gradient-3" x1="0.587" y1="1.018" x2="0.424" y2="0.047" xlink:href="#linear-gradient"/>
    <linearGradient id="linear-gradient-4" x1="0.906" y1="1.302" x2="-0.213" y2="-0.909" gradientUnits="objectBoundingBox">
      <stop offset="0" stop-color="#005d96" stop-opacity="0"/>
      <stop offset="0.297" stop-color="#005d96" stop-opacity="0.102"/>
      <stop offset="0.433" stop-color="#06639d" stop-opacity="0.251"/>
      <stop offset="0.728" stop-color="#1873b1" stop-opacity="0.627"/>
      <stop offset="1" stop-color="#2a84c5"/>
    </linearGradient>
    <linearGradient id="linear-gradient-5" x1="0.787" y1="1.719" x2="0.136" y2="-1.042" xlink:href="#linear-gradient-4"/>
    <linearGradient id="linear-gradient-6" x1="0.703" y1="1.311" x2="0.195" y2="-0.721" xlink:href="#linear-gradient-4"/>
  </defs>
  <g id="Group_2636" data-name="Group 2636" transform="translate(52.491 8.438)">
    <path id="Path_1345" data-name="Path 1345" d="M8.453-67.917V-80.908h3.155v5.259h4.772v-5.259h3.136v12.991H16.381v-5.161H11.609v5.161Zm18,0v-5.609l-4.928-7.382H25.4l3.7,6.213H27.638l3.37-6.213h3.136l-4.986,8.161.448-1.675v6.505Zm13.614.273a14.907,14.907,0,0,1-1.792-.1,9.639,9.639,0,0,1-1.48-.292,8.185,8.185,0,0,1-1.324-.506v-3a6.36,6.36,0,0,0,2.026,1.091,6.887,6.887,0,0,0,2.142.37,2.343,2.343,0,0,0,1.373-.341,1.2,1.2,0,0,0,.477-1.042,1,1,0,0,0-.438-.847,4.282,4.282,0,0,0-1.159-.565q-.721-.243-1.617-.555a7.354,7.354,0,0,1-1.11-.448,3.842,3.842,0,0,1-.974-.691,3.068,3.068,0,0,1-.682-1.023,3.831,3.831,0,0,1-.253-1.48,4.154,4.154,0,0,1,.292-1.539,3.687,3.687,0,0,1,.906-1.324,4.366,4.366,0,0,1,1.568-.925,6.66,6.66,0,0,1,2.24-.341,9.093,9.093,0,0,1,1.412.1,7.612,7.612,0,0,1,1.178.282A8.471,8.471,0,0,1,44-80.343V-77.3A7.363,7.363,0,0,0,43-78a6.94,6.94,0,0,0-1.159-.536,4.125,4.125,0,0,0-1.266-.234,3.526,3.526,0,0,0-1.071.117,1.562,1.562,0,0,0-.76.438,1.1,1.1,0,0,0-.273.769,1.12,1.12,0,0,0,.331.857,2.548,2.548,0,0,0,.915.516q.584.2,1.3.438a13.814,13.814,0,0,1,1.471.516,4.521,4.521,0,0,1,1.178.711,2.858,2.858,0,0,1,.779,1.052,3.728,3.728,0,0,1,.273,1.5,4.256,4.256,0,0,1-.545,2.133A3.871,3.871,0,0,1,42.6-68.2,5.289,5.289,0,0,1,40.065-67.644Zm5.96-.273,4.908-12.991H54.38l4.6,12.991H55.744L51.6-80.168l1.539-.136L49-67.917Zm2.766-2.8.643-2.318h5.9l.292,2.318Zm12.037,2.8V-80.908h5.512a7.554,7.554,0,0,1,2.464.36A3.3,3.3,0,0,1,70.429-79.4a3.436,3.436,0,0,1,.584,2.094,2.318,2.318,0,0,1-.428,1.441,3.356,3.356,0,0,1-1.032.906,7.914,7.914,0,0,1-1.13.536l-.351-.682a4.578,4.578,0,0,1,1.88.438,3.1,3.1,0,0,1,1.266,1.11,3.081,3.081,0,0,1,.458,1.7,3.608,3.608,0,0,1-.652,2.23,3.855,3.855,0,0,1-1.743,1.285,6.688,6.688,0,0,1-2.415.419Zm3.155-2.435h2.649a2.647,2.647,0,0,0,.9-.146A1.345,1.345,0,0,0,68.19-71a1.647,1.647,0,0,0,.253-.964,1.563,1.563,0,0,0-.156-.74,1.19,1.19,0,0,0-.419-.458,1.939,1.939,0,0,0-.594-.243,3.054,3.054,0,0,0-.7-.078h-2.59Zm0-5.454h2.532a1.55,1.55,0,0,0,.623-.127,1.093,1.093,0,0,0,.477-.4,1.262,1.262,0,0,0,.185-.721,1.258,1.258,0,0,0-.428-1.1,1.78,1.78,0,0,0-1.052-.3H63.983Zm9,7.888,4.908-12.991h3.447l4.6,12.991H82.7L78.551-80.168,80.09-80.3,75.961-67.917Zm2.766-2.8.643-2.318h5.9l.292,2.318Zm13.6,2.8V-78.473H85.7v-2.435H96.2v2.435H92.5v10.557Z" transform="translate(-8.368 81.2)" fill="#141433"/>
    <path id="Path_1346" data-name="Path 1346" d="M4.93-33.425v-6.329h.74l2.344,3.6-.465.1,2.476-3.7h.74v6.329h-.683V-39.07h.3L7.776-35.408l-2.41-3.587.247-.351v5.921Zm9.08.142a3.078,3.078,0,0,1-.631-.066,1.9,1.9,0,0,1-.588-.228,1.241,1.241,0,0,1-.436-.441,1.368,1.368,0,0,1-.166-.707,1.76,1.76,0,0,1,.223-.944,1.258,1.258,0,0,1,.617-.512,2.439,2.439,0,0,1,.906-.157,4.156,4.156,0,0,1,.674.047,2.415,2.415,0,0,1,.508.138,2.528,2.528,0,0,1,.4.2l.133.626a2.008,2.008,0,0,0-.631-.28,3.273,3.273,0,0,0-.906-.119,1.582,1.582,0,0,0-.92.228.762.762,0,0,0-.323.664.788.788,0,0,0,.195.56,1.054,1.054,0,0,0,.493.294,2.217,2.217,0,0,0,.612.085,3.65,3.65,0,0,0,.935-.09.394.394,0,0,0,.318-.413v-2.173a.968.968,0,0,0-.323-.806,1.449,1.449,0,0,0-.92-.256,3.207,3.207,0,0,0-.8.109,1.959,1.959,0,0,0-.726.346v-.683a2.3,2.3,0,0,1,.788-.289,4.837,4.837,0,0,1,.958-.1,2.558,2.558,0,0,1,.579.062,1.761,1.761,0,0,1,.474.18,1.219,1.219,0,0,1,.356.3,1.381,1.381,0,0,1,.228.427,1.72,1.72,0,0,1,.081.546v2.3a.916.916,0,0,1-.3.75,1.587,1.587,0,0,1-.778.323A6.587,6.587,0,0,1,14.01-33.282Zm3.672-4.5a4.785,4.785,0,0,1,.47-.2,3.842,3.842,0,0,1,.493-.147,4.554,4.554,0,0,1,.512-.085,4.852,4.852,0,0,1,.527-.028,2.485,2.485,0,0,1,1.1.2,1.255,1.255,0,0,1,.593.593,2.173,2.173,0,0,1,.185.939v3.084H20.88v-3.084a1.644,1.644,0,0,0-.043-.361,1.024,1.024,0,0,0-.166-.365.86.86,0,0,0-.38-.285,1.773,1.773,0,0,0-.683-.109A4.053,4.053,0,0,0,19-37.58a4.8,4.8,0,0,0-.636.142v4.013h-.683Zm7.078,4.5a3.078,3.078,0,0,1-.631-.066,1.9,1.9,0,0,1-.588-.228,1.241,1.241,0,0,1-.436-.441,1.368,1.368,0,0,1-.166-.707,1.76,1.76,0,0,1,.223-.944,1.258,1.258,0,0,1,.617-.512,2.439,2.439,0,0,1,.906-.157,4.156,4.156,0,0,1,.674.047,2.415,2.415,0,0,1,.508.138,2.528,2.528,0,0,1,.4.2l.133.626a2.008,2.008,0,0,0-.631-.28,3.273,3.273,0,0,0-.906-.119,1.582,1.582,0,0,0-.92.228.762.762,0,0,0-.323.664.788.788,0,0,0,.195.56,1.054,1.054,0,0,0,.493.294,2.217,2.217,0,0,0,.612.085,3.65,3.65,0,0,0,.935-.09.394.394,0,0,0,.318-.413v-2.173a.968.968,0,0,0-.323-.806,1.449,1.449,0,0,0-.92-.256,3.207,3.207,0,0,0-.8.109,1.959,1.959,0,0,0-.726.346v-.683a2.3,2.3,0,0,1,.788-.289,4.837,4.837,0,0,1,.958-.1,2.558,2.558,0,0,1,.579.062A1.761,1.761,0,0,1,26.2-38a1.219,1.219,0,0,1,.356.3,1.381,1.381,0,0,1,.228.427,1.72,1.72,0,0,1,.081.546v2.3a.916.916,0,0,1-.3.75,1.587,1.587,0,0,1-.778.323A6.587,6.587,0,0,1,24.76-33.282Zm5.6,0a2.307,2.307,0,0,1-1.21-.289,1.777,1.777,0,0,1-.716-.825,3.111,3.111,0,0,1-.237-1.267,3.389,3.389,0,0,1,.218-1.324,1.925,1.925,0,0,1,.565-.778,1.975,1.975,0,0,1,.759-.37,3.412,3.412,0,0,1,.8-.1,2.994,2.994,0,0,1,.849.119,1.554,1.554,0,0,1,.664.375.914.914,0,0,1,.261.683v3.833a2.069,2.069,0,0,1-.085.579,1.412,1.412,0,0,1-.308.546,1.546,1.546,0,0,1-.626.4,2.993,2.993,0,0,1-1.039.152,3.457,3.457,0,0,1-.75-.076q-.342-.076-.6-.142v-.645q.152.038.346.09t.427.09a3.094,3.094,0,0,0,.5.038,2.2,2.2,0,0,0,.954-.157.793.793,0,0,0,.4-.389,1.233,1.233,0,0,0,.095-.47V-33.9l.237.237a2.727,2.727,0,0,1-.455.18,5.578,5.578,0,0,1-.56.142A2.566,2.566,0,0,1,30.358-33.282Zm0-.626a2.753,2.753,0,0,0,.64-.081,2.33,2.33,0,0,0,.631-.251v-2.723a.526.526,0,0,0-.147-.4.807.807,0,0,0-.394-.19,2.566,2.566,0,0,0-.531-.052,1.693,1.693,0,0,0-1.044.27,1.323,1.323,0,0,0-.474.716,3.582,3.582,0,0,0-.123.958,2.21,2.21,0,0,0,.332,1.267A1.244,1.244,0,0,0,30.358-33.909Zm3.558.484v-4.735H34.6v4.735ZM33.878-39v-.75h.759V-39ZM36.2-37.78a4.786,4.786,0,0,1,.47-.2,3.843,3.843,0,0,1,.493-.147,4.554,4.554,0,0,1,.512-.085,4.852,4.852,0,0,1,.527-.028,2.485,2.485,0,0,1,1.1.2,1.255,1.255,0,0,1,.593.593,2.173,2.173,0,0,1,.185.939v3.084H39.4v-3.084a1.644,1.644,0,0,0-.043-.361,1.024,1.024,0,0,0-.166-.365.86.86,0,0,0-.38-.285,1.773,1.773,0,0,0-.683-.109,4.053,4.053,0,0,0-.607.047,4.8,4.8,0,0,0-.636.142v4.013H36.2Zm7.372,4.5a2.307,2.307,0,0,1-1.21-.289,1.777,1.777,0,0,1-.716-.825,3.111,3.111,0,0,1-.237-1.267,3.389,3.389,0,0,1,.218-1.324,1.925,1.925,0,0,1,.565-.778,1.975,1.975,0,0,1,.759-.37,3.412,3.412,0,0,1,.8-.1,2.994,2.994,0,0,1,.849.119,1.554,1.554,0,0,1,.664.375.914.914,0,0,1,.261.683v3.833a2.069,2.069,0,0,1-.085.579,1.412,1.412,0,0,1-.308.546,1.546,1.546,0,0,1-.626.4,2.993,2.993,0,0,1-1.039.152,3.457,3.457,0,0,1-.75-.076q-.342-.076-.6-.142v-.645q.152.038.346.09t.427.09a3.093,3.093,0,0,0,.5.038,2.2,2.2,0,0,0,.954-.157.793.793,0,0,0,.4-.389,1.233,1.233,0,0,0,.095-.47V-33.9l.237.237a2.727,2.727,0,0,1-.455.18,5.578,5.578,0,0,1-.56.142A2.566,2.566,0,0,1,43.575-33.282Zm0-.626a2.753,2.753,0,0,0,.64-.081,2.33,2.33,0,0,0,.631-.251v-2.723a.526.526,0,0,0-.147-.4.807.807,0,0,0-.394-.19,2.565,2.565,0,0,0-.531-.052,1.693,1.693,0,0,0-1.044.27,1.323,1.323,0,0,0-.474.716,3.582,3.582,0,0,0-.123.958,2.21,2.21,0,0,0,.332,1.267A1.244,1.244,0,0,0,43.575-33.909Zm6.831,2.315a1.058,1.058,0,0,1-.256-.028,1.788,1.788,0,0,1-.19-.057v-.626a1.338,1.338,0,0,0,.171.057.9.9,0,0,0,.237.028.748.748,0,0,0,.522-.18,1.446,1.446,0,0,0,.337-.484,5.685,5.685,0,0,0,.251-.674v.275l-2.011-4.877h.778l1.575,4.042h-.142l1.566-4.042h.683l-2.03,5.2a2.855,2.855,0,0,1-.479.854,1.493,1.493,0,0,1-.522.4A1.271,1.271,0,0,1,50.406-31.593Zm6.272-1.689a2,2,0,0,1-1.646-.659,2.834,2.834,0,0,1-.536-1.836,2.659,2.659,0,0,1,.565-1.85,2.058,2.058,0,0,1,1.6-.617,2.3,2.3,0,0,1,1.252.308,1.809,1.809,0,0,1,.712.863,3.4,3.4,0,0,1,.228,1.3,2.739,2.739,0,0,1-.565,1.831A1.994,1.994,0,0,1,56.678-33.282Zm-.009-.626a1.434,1.434,0,0,0,.9-.251,1.366,1.366,0,0,0,.46-.674,3.037,3.037,0,0,0,.138-.944,2.988,2.988,0,0,0-.142-.973,1.251,1.251,0,0,0-.47-.64,1.529,1.529,0,0,0-.887-.228,1.437,1.437,0,0,0-.892.247,1.341,1.341,0,0,0-.46.659,2.948,2.948,0,0,0-.138.935,2.467,2.467,0,0,0,.332,1.352A1.268,1.268,0,0,0,56.669-33.909Zm5.494.626A2.419,2.419,0,0,1,61.09-33.5a1.519,1.519,0,0,1-.678-.636,2.08,2.08,0,0,1-.232-1.025v-3h.683v2.846a1.5,1.5,0,0,0,.318,1.058,1.292,1.292,0,0,0,.982.337,1.292,1.292,0,0,0,.982-.337,1.5,1.5,0,0,0,.318-1.058v-2.846h.683v3a1.82,1.82,0,0,1-.517,1.39A2.052,2.052,0,0,1,62.162-33.282Zm3.549-.142V-37.78q.114-.047.441-.161a6.306,6.306,0,0,1,.788-.209,4.711,4.711,0,0,1,.954-.095.624.624,0,0,1,.152.019l.152.038v.607a4.181,4.181,0,0,0-.479-.028,4.169,4.169,0,0,0-.451.024q-.218.024-.436.062l-.436.076v4.023Zm7.761.142a3.018,3.018,0,0,1-.859-.1,4.288,4.288,0,0,1-.716-.294V-34.4q.294.161.522.275a2,2,0,0,0,.465.166,2.53,2.53,0,0,0,.541.052,1.322,1.322,0,0,0,.773-.209.634.634,0,0,0,.3-.541.542.542,0,0,0-.147-.408,1.19,1.19,0,0,0-.375-.237l-.474-.2q-.275-.076-.555-.166a2.235,2.235,0,0,1-.512-.237,1.161,1.161,0,0,1-.375-.38,1.14,1.14,0,0,1-.142-.6,1.219,1.219,0,0,1,.147-.617,1.3,1.3,0,0,1,.384-.422,1.626,1.626,0,0,1,.531-.242,2.346,2.346,0,0,1,.588-.076,2.085,2.085,0,0,1,.731.114q.3.114.626.256v.683q-.361-.19-.645-.308a1.745,1.745,0,0,0-.674-.119,1.519,1.519,0,0,0-.7.157.508.508,0,0,0-.308.479.571.571,0,0,0,.157.422,1.08,1.08,0,0,0,.413.247q.256.09.55.176.237.076.493.166a2.081,2.081,0,0,1,.474.237,1.154,1.154,0,0,1,.356.384,1.2,1.2,0,0,1,.138.607,1.306,1.306,0,0,1-.256.83,1.49,1.49,0,0,1-.65.479A2.212,2.212,0,0,1,73.472-33.282Zm4.668,0a3.078,3.078,0,0,1-.631-.066,1.9,1.9,0,0,1-.588-.228,1.241,1.241,0,0,1-.436-.441,1.368,1.368,0,0,1-.166-.707,1.76,1.76,0,0,1,.223-.944,1.258,1.258,0,0,1,.617-.512,2.439,2.439,0,0,1,.906-.157,4.156,4.156,0,0,1,.674.047,2.414,2.414,0,0,1,.508.138,2.527,2.527,0,0,1,.4.2l.133.626a2.008,2.008,0,0,0-.631-.28,3.273,3.273,0,0,0-.906-.119,1.582,1.582,0,0,0-.92.228.762.762,0,0,0-.323.664.788.788,0,0,0,.195.56,1.054,1.054,0,0,0,.493.294,2.217,2.217,0,0,0,.612.085,3.65,3.65,0,0,0,.935-.09.394.394,0,0,0,.318-.413v-2.173a.968.968,0,0,0-.323-.806,1.449,1.449,0,0,0-.92-.256,3.207,3.207,0,0,0-.8.109,1.959,1.959,0,0,0-.726.346v-.683a2.3,2.3,0,0,1,.788-.289,4.837,4.837,0,0,1,.958-.1,2.558,2.558,0,0,1,.579.062,1.761,1.761,0,0,1,.474.18,1.219,1.219,0,0,1,.356.3,1.381,1.381,0,0,1,.228.427,1.72,1.72,0,0,1,.081.546v2.3a.916.916,0,0,1-.3.75,1.587,1.587,0,0,1-.778.323A6.587,6.587,0,0,1,78.14-33.282Zm4.355-.142h-.683v-6.537H82.5Zm3.52.142a2.327,2.327,0,0,1-1.167-.28,1.84,1.84,0,0,1-.759-.84,3.246,3.246,0,0,1-.266-1.395,2.655,2.655,0,0,1,.555-1.836,1.952,1.952,0,0,1,1.523-.612,2,2,0,0,1,1.219.342,1.873,1.873,0,0,1,.659.92,3.854,3.854,0,0,1,.19,1.309h-3.8l.047-.626h3.311l-.266.095a1.61,1.61,0,0,0-.356-1.063,1.306,1.306,0,0,0-1-.351,1.581,1.581,0,0,0-.773.171,1.044,1.044,0,0,0-.46.593,3.626,3.626,0,0,0-.152,1.181,1.911,1.911,0,0,0,.4,1.314,1.443,1.443,0,0,0,1.134.451,3.7,3.7,0,0,0,.645-.052,2.931,2.931,0,0,0,.541-.147,2.807,2.807,0,0,0,.436-.209v.7a3.35,3.35,0,0,1-.754.247A4.478,4.478,0,0,1,86.015-33.282Zm4.621,0a3.018,3.018,0,0,1-.859-.1,4.288,4.288,0,0,1-.716-.294V-34.4q.294.161.522.275a2,2,0,0,0,.465.166,2.53,2.53,0,0,0,.541.052,1.322,1.322,0,0,0,.773-.209.634.634,0,0,0,.3-.541.542.542,0,0,0-.147-.408,1.19,1.19,0,0,0-.375-.237l-.474-.2q-.275-.076-.555-.166a2.235,2.235,0,0,1-.512-.237,1.162,1.162,0,0,1-.375-.38,1.14,1.14,0,0,1-.142-.6,1.219,1.219,0,0,1,.147-.617,1.3,1.3,0,0,1,.384-.422,1.626,1.626,0,0,1,.531-.242,2.346,2.346,0,0,1,.588-.076,2.085,2.085,0,0,1,.731.114q.3.114.626.256v.683q-.361-.19-.645-.308a1.745,1.745,0,0,0-.674-.119,1.519,1.519,0,0,0-.7.157.508.508,0,0,0-.308.479.571.571,0,0,0,.157.422,1.08,1.08,0,0,0,.413.247q.256.09.55.176.237.076.493.166a2.08,2.08,0,0,1,.474.237,1.154,1.154,0,0,1,.356.384,1.2,1.2,0,0,1,.138.607,1.306,1.306,0,0,1-.256.83,1.49,1.49,0,0,1-.65.479A2.212,2.212,0,0,1,90.636-33.282Z" transform="translate(-4.93 57.841)" fill="#141433"/>
  </g>
  <g id="Group_2637" data-name="Group 2637">
    <path id="Path_1340" data-name="Path 1340" d="M.53,0H10.3a.53.53,0,0,1,.53.53V20.677a.53.53,0,0,1-.53.53H.53a.53.53,0,0,1-.53-.53V.53A.53.53,0,0,1,.53,0Z" transform="matrix(0.994, -0.111, 0.111, 0.994, 0, 1.204)" fill="url(#linear-gradient)"/>
    <path id="Path_1341" data-name="Path 1341" d="M.53,0H10.3a.53.53,0,0,1,.53.53V11.466a.53.53,0,0,1-.53.53H.53a.53.53,0,0,1-.53-.53V.53A.53.53,0,0,1,.53,0Z" transform="matrix(0.994, -0.111, 0.111, 0.994, 14.212, 8.882)" fill="url(#linear-gradient-2)"/>
    <path id="Path_1343" data-name="Path 1343" d="M.53,0H10.3a.53.53,0,0,1,.53.53V15.108a.53.53,0,0,1-.53.53H.53a.53.53,0,0,1-.53-.53V.53A.53.53,0,0,1,.53,0Z" transform="matrix(0.994, -0.111, 0.111, 0.994, 27.146, 3.68)" fill="url(#linear-gradient-3)"/>
    <path id="Path_1344" data-name="Path 1344" d="M.53,0H10.3a.53.53,0,0,1,.53.53V20.677a.53.53,0,0,1-.53.53H.53a.53.53,0,0,1-.53-.53V.53A.53.53,0,0,1,.53,0Z" transform="matrix(0.994, -0.111, 0.111, 0.994, 29.206, 22.094)" fill="url(#linear-gradient-4)"/>
    <path id="Path_1342" data-name="Path 1342" d="M.53,0h9.746a.53.53,0,0,1,.53.53V11.466a.53.53,0,0,1-.53.53H.53a.53.53,0,0,1-.53-.53V.53A.53.53,0,0,1,.53,0Z" transform="matrix(0.994, -0.111, 0.111, 0.994, 15.913, 23.653)" fill="url(#linear-gradient-5)"/>
    <path id="Path_1339" data-name="Path 1339" d="M.53,0H10.3a.53.53,0,0,1,.53.53V15.108a.53.53,0,0,1-.53.53H.53a.53.53,0,0,1-.53-.53V.53A.53.53,0,0,1,.53,0Z" transform="matrix(0.994, -0.111, 0.111, 0.994, 2.68, 25.154)" fill="url(#linear-gradient-6)"/>
  </g>
</svg>
