<svg xmlns="http://www.w3.org/2000/svg" xmlns:xlink="http://www.w3.org/1999/xlink" width="39" height="39" viewBox="0 0 39 39">
  <defs>
    <clipPath id="clip-path">
      <rect id="Rectangle_1187" data-name="Rectangle 1187" width="39" height="39" transform="translate(233 1703)" fill="#fff"/>
    </clipPath>
  </defs>
  <g id="Mask_Group_24" data-name="Mask Group 24" transform="translate(-233 -1703)" clip-path="url(#clip-path)">
    <g id="mc_symbol" transform="translate(233 1708.682)">
      <rect id="Rectangle_1185" data-name="Rectangle 1185" width="39" height="27.637" fill="none"/>
      <g id="Group_2538" data-name="Group 2538">
        <rect id="Rectangle_1186" data-name="Rectangle 1186" width="8.061" height="14.485" transform="translate(15.459 6.576)" fill="#ff5f00"/>
        <path id="Path_1268" data-name="Path 1268" d="M97.8,78.3a9.2,9.2,0,0,1,3.519-7.243,9.212,9.212,0,1,0,0,14.485A9.2,9.2,0,0,1,97.8,78.3Z" transform="translate(-81.834 -64.485)" fill="#eb001b"/>
        <path id="Path_1269" data-name="Path 1269" d="M116.228,78.3a9.212,9.212,0,0,1-14.9,7.243,9.214,9.214,0,0,0,0-14.485,9.212,9.212,0,0,1,14.9,7.243Z" transform="translate(-81.834 -64.485)" fill="#f79e1b"/>
        <path id="Path_1270" data-name="Path 1270" d="M115.349,84.012v-.3h.12v-.06h-.3v.06h.12v.3Zm.591,0v-.358h-.093l-.107.246-.107-.246h-.093v.358h.066v-.27l.1.233h.068l.1-.233v.27Z" transform="translate(-81.834 -64.485)" fill="#f79e1b"/>
      </g>
    </g>
  </g>
</svg>
