<svg xmlns="http://www.w3.org/2000/svg" width="104.27" height="127.187" viewBox="0 0 104.27 127.187">
  <g id="Group_2601" data-name="Group 2601" transform="translate(-407.865 -421.813)">
    <path id="Icon_simple-minutemailer" data-name="Icon simple-minutemailer" d="M17.388,4.054,28.17,15.724,20.563,30.718,36.627,27.84,43.94,45.485,75,4.751ZM15.4,29.331l2.991-2.459L14.535,28.09l-.394-.563,1.594-1.547-2.091.844A21.287,21.287,0,0,0,6.666,62.164,21.136,21.136,0,0,1,3.9,51.679,21.818,21.818,0,0,1,17.385,31.615l.984-2.394-2.344,1.034-.659-.891.034-.034Zm13.638-6.157,4.994-8.816L63.4,7.48,29.039,23.174Z" transform="translate(417.498 456.945)" fill="#165fa5"/>
    <g id="Particles" transform="translate(407.865 421.813)">
      <path id="Path_193" data-name="Path 193" d="M4.279,5.606c1.582,0,1.45-2.572,1.45-.99A2.865,2.865,0,1,1,0,4.616C0,3.034,2.7,5.606,4.279,5.606Z" transform="translate(69.895 37.206)" fill="#165fa5"/>
      <path id="Path_208" data-name="Path 208" d="M4.279,5.977c1.582,0,1.45,2.572,1.45.99A2.865,2.865,0,1,0,0,6.967C0,8.549,2.7,5.977,4.279,5.977Z" transform="translate(69.895 78.397)" fill="#165fa5"/>
      <path id="Path_196" data-name="Path 196" d="M2.865,0A2.865,2.865,0,0,1,5.729,2.865c0,1.582.67-1.794-.912-1.794S0,4.447,0,2.865A2.865,2.865,0,0,1,2.865,0Z" transform="translate(47.552 21.771)" fill="#165fa5"/>
      <path id="Path_205" data-name="Path 205" d="M2.865,3.287A2.865,2.865,0,0,0,5.729.422c0-1.582.67,1.794-.912,1.794S0-1.16,0,.422A2.865,2.865,0,0,0,2.865,3.287Z" transform="translate(47.552 102.129)" fill="#165fa5"/>
      <path id="Path_201" data-name="Path 201" d="M3.875,0A2.865,2.865,0,0,1,6.739,2.86C6.739,3.455,2.821.8,2.405,1.4s2.456,4.32,1.469,4.32c-1.582,0,2.865-2.738,2.865-4.32S2.293,0,3.875,0Z" transform="translate(25.917 38.962)" fill="#165fa5"/>
      <path id="Path_207" data-name="Path 207" d="M3.875,5.719A2.865,2.865,0,0,0,6.739,2.855c0-.595-3.918,2.059-4.334,1.456S4.862-.01,3.875-.01c-1.582,0,2.865,2.738,2.865,4.32S2.293,5.719,3.875,5.719Z" transform="translate(25.917 82.509)" fill="#165fa5"/>
      <path id="Path_199" data-name="Path 199" d="M2.865.2c1.123,0-1.546,2.329-1,3.432.117.223,3.867-1.142,3.867-.683,0,1.582-1.728-.708-3.31-.708S0,4.533,0,2.951A2.768,2.768,0,0,1,2.865.2Z" transform="translate(0 21.684)" fill="#165fa5"/>
      <path id="Path_203" data-name="Path 203" d="M2.865,3.659c1.123,0-1.546-2.329-1-3.432C1.98,0,5.729,1.369,5.729.91c0-1.582-1.728.708-3.31.708S0-.672,0,.91A2.768,2.768,0,0,0,2.865,3.659Z" transform="translate(0 101.641)" fill="#165fa5"/>
      <path id="Path_200" data-name="Path 200" d="M2.865,7.611c1.582,0,2.865-4.447,2.865-2.865A2.865,2.865,0,0,1,0,4.746C0,3.164,1.283,7.611,2.865,7.611Z" transform="translate(0 57.128)" fill="#165fa5"/>
      <path id="Path_211" data-name="Path 211" d="M2.865,4.406c1.582,0,2.865,4.447,2.865,2.865A2.865,2.865,0,0,0,0,7.27C0,8.853,1.283,4.406,2.865,4.406Z" transform="translate(0 58.042)" fill="#165fa5"/>
      <path id="Path_195" data-name="Path 195" d="M2.865,0c1.582,0-.95,1.283-.95,2.865s2.532,2.865.95,2.865A2.865,2.865,0,0,1,2.865,0Z" transform="translate(80.208 12.604)" fill="#165fa5"/>
      <path id="Path_209" data-name="Path 209" d="M2.865,5.729c1.582,0-.95-1.283-.95-2.865S4.447,0,2.865,0a2.865,2.865,0,0,0,0,5.729Z" transform="translate(80.208 108.853)" fill="#165fa5"/>
      <path id="Path_202" data-name="Path 202" d="M1.942,0c1.582,0-4.1,1.283-4.1,2.865s5.685,2.865,4.1,2.865A2.865,2.865,0,0,1,1.942,0Z" transform="translate(94.881 61.875)" fill="#165fa5"/>
      <path id="Path_212" data-name="Path 212" d="M1.942,5.729c1.582,0-4.1-1.283-4.1-2.865S3.524,0,1.942,0a2.865,2.865,0,0,0,0,5.729Z" transform="translate(94.881 59.583)" fill="#165fa5"/>
      <path id="Path_194" data-name="Path 194" d="M1.922,6.491c1.582,0,3.807-3.387,3.807-1.8A2.865,2.865,0,1,1,0,4.686C0,3.1.34,6.491,1.922,6.491Z" transform="translate(98.541 37.136)" fill="#165fa5"/>
      <path id="Path_210" data-name="Path 210" d="M1.922,5.325c1.582,0,3.807,3.387,3.807,1.8A2.865,2.865,0,1,0,0,7.13C0,8.712.34,5.325,1.922,5.325Z" transform="translate(98.541 78.234)" fill="#165fa5"/>
      <path id="Path_198" data-name="Path 198" d="M2.865,0A2.865,2.865,0,0,1,5.729,2.865C5.729,4.447,6.453,0,4.871,0S0,4.447,0,2.865A2.865,2.865,0,0,1,2.865,0Z" transform="translate(24.062 6.875)" fill="#165fa5"/>
      <path id="Path_204" data-name="Path 204" d="M2.865,3.2A2.865,2.865,0,0,0,5.729.34c0-1.582.724,2.865-.858,2.865S0-1.242,0,.34A2.865,2.865,0,0,0,2.865,3.2Z" transform="translate(24.062 117.107)" fill="#165fa5"/>
      <path id="Path_197" data-name="Path 197" d="M2.865,0C4.447,0,1.534,1.283,1.534,2.865S4.447,5.729,2.865,5.729A2.865,2.865,0,0,1,2.865,0Z" transform="translate(53.281 0)" fill="#165fa5"/>
      <path id="Path_206" data-name="Path 206" d="M2.865,5.729c1.582,0-1.331-1.283-1.331-2.865S4.447,0,2.865,0a2.865,2.865,0,0,0,0,5.729Z" transform="translate(53.281 121.457)" fill="#165fa5"/>
    </g>
  </g>
</svg>
